<svg xmlns="http://www.w3.org/2000/svg" id="icon-sprite" aria-hidden="true">
<symbol id="i-logo-mark" viewBox="0 0 32 32"><rect x="2" y="2" width="28" height="28" rx="6" fill="#6c5ce7"/><circle cx="16" cy="14" r="6" fill="#fdcb6e" stroke="#2d3436" stroke-width="1.5"/><path d="M13 12.5c0-1.2 1.2-2 3-2s3 .8 3 2-1 1.5-3 1.5-3 .5-3 1.5 1.2 2 3 2 3-.8 3-2" fill="none" stroke="#2d3436" stroke-width="1.4" stroke-linecap="round"/><path d="M8 24h16" stroke="#ffffff" stroke-width="2" stroke-linecap="round"/></symbol>
<symbol id="i-sound-on" viewBox="0 0 32 32"><path d="M6 12h4l6-5v18l-6-5H6z" fill="#6c5ce7" stroke="#2d3436" stroke-width="1.5" stroke-linejoin="round"/><path d="M20 12c1.5 1.2 2.5 2.8 2.5 4s-1 2.8-2.5 4M23 9c2.5 2 4 4.5 4 7s-1.5 5-4 7" fill="none" stroke="#2d3436" stroke-width="2" stroke-linecap="round"/></symbol>
<symbol id="i-sound-off" viewBox="0 0 32 32"><path d="M6 12h4l6-5v18l-6-5H6z" fill="#eee9ff" stroke="#2d3436" stroke-width="1.5" stroke-linejoin="round"/><path d="M21 12l6 8M27 12l-6 8" stroke="#e17055" stroke-width="2.2" stroke-linecap="round"/></symbol>
<symbol id="i-chevron-right" viewBox="0 0 32 32"><path d="M12 8l8 8-8 8" fill="none" stroke="#2d3436" stroke-width="2.5" stroke-linecap="round" stroke-linejoin="round"/></symbol>
<symbol id="i-check" viewBox="0 0 32 32"><circle cx="16" cy="16" r="12" fill="#00b894"/><path d="M10 16l4 4 8-8" fill="none" stroke="#ffffff" stroke-width="2.5" stroke-linecap="round" stroke-linejoin="round"/></symbol>
<symbol id="i-cross" viewBox="0 0 32 32"><circle cx="16" cy="16" r="12" fill="#e17055"/><path d="M12 12l8 8M20 12l-8 8" stroke="#ffffff" stroke-width="2.5" stroke-linecap="round"/></symbol>
<symbol id="i-warn" viewBox="0 0 32 32"><path d="M16 4L28 26H4L16 4z" fill="#fdcb6e" stroke="#2d3436" stroke-width="1.5" stroke-linejoin="round"/><path d="M16 12v6" stroke="#2d3436" stroke-width="2.2" stroke-linecap="round"/><circle cx="16" cy="22" r="1.4" fill="#2d3436"/></symbol>
<symbol id="i-spark" viewBox="0 0 32 32"><path d="M16 3l2.2 8.2L26 14l-7.8 2.8L16 25l-2.2-8.2L6 14l7.8-2.8L16 3z" fill="#fdcb6e" stroke="#2d3436" stroke-width="1.5" stroke-linejoin="round"/></symbol>
<symbol id="i-star" viewBox="0 0 32 32"><path d="M16 4l3 7h7l-5.5 4.5 2 7.5L16 19l-6.5 4 2-7.5L6 11h7z" fill="#fdcb6e" stroke="#2d3436" stroke-width="1.5" stroke-linejoin="round"/></symbol>
<symbol id="i-coin" viewBox="0 0 32 32"><circle cx="16" cy="16" r="12" fill="#fdcb6e" stroke="#2d3436" stroke-width="2"/><circle cx="16" cy="16" r="8" fill="none" stroke="#2d3436" stroke-width="1.2" opacity=".35"/><path d="M14 11.5c0-1 1-1.5 2.2-1.5s2.2.5 2.2 1.5-.8 1.2-2.2 1.2-2.2.4-2.2 1.3.9 1.5 2.2 1.5 2.2-.5 2.2-1.5" fill="none" stroke="#2d3436" stroke-width="1.4" stroke-linecap="round"/><path d="M16.2 10v12" stroke="#2d3436" stroke-width="1.3" stroke-linecap="round"/></symbol>
<symbol id="i-rand" viewBox="0 0 32 32"><circle cx="16" cy="16" r="13" fill="#6c5ce7"/><path d="M13 11.5c0-1.1 1.1-1.8 2.8-1.8s2.8.7 2.8 1.8-.9 1.3-2.8 1.3-2.8.5-2.8 1.5 1 1.8 2.8 1.8 2.8-.7 2.8-1.8" fill="none" stroke="#ffffff" stroke-width="1.6" stroke-linecap="round"/></symbol>
<symbol id="i-play" viewBox="0 0 32 32"><circle cx="16" cy="16" r="13" fill="#6c5ce7" stroke="#2d3436" stroke-width="1.5"/><path d="M13 10l10 6-10 6V10z" fill="#ffffff"/></symbol>
<symbol id="i-reset" viewBox="0 0 32 32"><path d="M8 12a9 9 0 1 1-1 5" fill="none" stroke="#2d3436" stroke-width="2.2" stroke-linecap="round"/><path d="M8 7v6h6" fill="none" stroke="#2d3436" stroke-width="2.2" stroke-linecap="round" stroke-linejoin="round"/></symbol>
<symbol id="i-clear" viewBox="0 0 32 32"><rect x="7" y="9" width="18" height="16" rx="2" fill="#eee9ff" stroke="#2d3436" stroke-width="1.5"/><path d="M5 9h22M12 9V7h8v2M13 14v6M19 14v6" stroke="#2d3436" stroke-width="1.8" stroke-linecap="round"/></symbol>
<symbol id="i-trophy" viewBox="0 0 32 32"><path d="M10 6h12v6a6 6 0 0 1-12 0V6z" fill="#fdcb6e" stroke="#2d3436" stroke-width="1.5"/><path d="M10 8H7a3 3 0 0 0 3 5M22 8h3a3 3 0 0 1-3 5" fill="none" stroke="#2d3436" stroke-width="1.5"/><path d="M14 18h4v3h-4zM11 26h10v2H11z" fill="#6c5ce7" stroke="#2d3436" stroke-width="1"/></symbol>
<symbol id="i-shield" viewBox="0 0 32 32"><path d="M16 3l11 4v8c0 7-5 11-11 13C10 26 5 22 5 15V7l11-4z" fill="#00b894" stroke="#2d3436" stroke-width="1.5"/><path d="M12 16l3 3 5-6" fill="none" stroke="#ffffff" stroke-width="2" stroke-linecap="round"/></symbol>
<symbol id="i-credit" viewBox="0 0 32 32"><rect x="4" y="9" width="24" height="15" rx="3" fill="#6c5ce7" stroke="#2d3436" stroke-width="1.5"/><rect x="4" y="13" width="24" height="4" fill="#2d3436"/><rect x="8" y="20" width="8" height="2" rx="1" fill="#fdcb6e"/></symbol>
<symbol id="i-split" viewBox="0 0 32 32"><rect x="3" y="12" width="8" height="8" rx="1" fill="#6c5ce7"/><rect x="12" y="12" width="8" height="8" rx="1" fill="#00b894"/><rect x="21" y="12" width="8" height="8" rx="1" fill="#fdcb6e"/><path d="M3 10h26" stroke="#2d3436" stroke-width="1.5"/></symbol>
<symbol id="i-weeks" viewBox="0 0 32 32"><rect x="4" y="8" width="5" height="16" rx="1" fill="#00b894" stroke="#2d3436" stroke-width="1"/><rect x="11" y="8" width="5" height="16" rx="1" fill="#00b894" stroke="#2d3436" stroke-width="1"/><rect x="18" y="8" width="5" height="16" rx="1" fill="#6c5ce7" stroke="#2d3436" stroke-width="1"/><rect x="25" y="8" width="3" height="16" rx="1" fill="#eee9ff" stroke="#2d3436" stroke-width="1"/></symbol>
<symbol id="i-persona-student" viewBox="0 0 32 32"><circle cx="16" cy="12" r="6" fill="#eee9ff" stroke="#2d3436" stroke-width="1.5"/><path d="M6 28c1-7 5-10 10-10s9 3 10 10" fill="#6c5ce7" stroke="#2d3436" stroke-width="1.5"/><path d="M8 10l8-5 8 5" fill="none" stroke="#2d3436" stroke-width="1.8" stroke-linecap="round"/><rect x="20" y="16" width="7" height="5" rx="1" fill="#fdcb6e" stroke="#2d3436" stroke-width="1"/></symbol>
<symbol id="i-persona-family" viewBox="0 0 32 32"><circle cx="11" cy="12" r="4.5" fill="#eee9ff" stroke="#2d3436" stroke-width="1.3"/><circle cx="21" cy="12" r="4.5" fill="#eee9ff" stroke="#2d3436" stroke-width="1.3"/><circle cx="16" cy="18" r="3.5" fill="#fdcb6e" stroke="#2d3436" stroke-width="1.3"/><path d="M4 28c1-5 4-7 7-7s5 1 5 3c0-2 2-4 6-4s6 3 6 8" fill="#00b894" stroke="#2d3436" stroke-width="1.3"/></symbol>
<symbol id="i-persona-tight" viewBox="0 0 32 32"><circle cx="16" cy="12" r="6" fill="#eee9ff" stroke="#2d3436" stroke-width="1.5"/><path d="M6 28c1-7 5-10 10-10s9 3 10 10" fill="#e17055" stroke="#2d3436" stroke-width="1.5"/><path d="M16 3v3M16 26v3M3 16h3M26 16h3M6 6l2 2M24 24l2 2M24 6l-2 2M6 26l2-2" stroke="#fdcb6e" stroke-width="1.8" stroke-linecap="round"/></symbol>
<symbol id="i-diff-chilled" viewBox="0 0 32 32"><circle cx="16" cy="16" r="12" fill="#d4f5ec" stroke="#2d3436" stroke-width="1.5"/><path d="M10 18c2 3 10 3 12 0" fill="none" stroke="#00b894" stroke-width="2" stroke-linecap="round"/><circle cx="12" cy="13" r="1.5" fill="#2d3436"/><circle cx="20" cy="13" r="1.5" fill="#2d3436"/></symbol>
<symbol id="i-diff-realistic" viewBox="0 0 32 32"><circle cx="16" cy="16" r="12" fill="#eee9ff" stroke="#2d3436" stroke-width="1.5"/><circle cx="16" cy="16" r="8" fill="none" stroke="#6c5ce7" stroke-width="2"/><circle cx="16" cy="16" r="2.5" fill="#6c5ce7"/><path d="M16 6v3M16 23v3M6 16h3M23 16h3" stroke="#2d3436" stroke-width="1.5" stroke-linecap="round"/></symbol>
<symbol id="i-diff-brutal" viewBox="0 0 32 32"><circle cx="16" cy="16" r="12" fill="#e17055" stroke="#2d3436" stroke-width="1.5"/><path d="M12 10c0-2 2-3 4-3s4 1 4 3c0 4-4 4-4 7" fill="none" stroke="#ffffff" stroke-width="2.2" stroke-linecap="round"/><circle cx="16" cy="22" r="1.5" fill="#ffffff"/></symbol>
<symbol id="i-mood-happy" viewBox="0 0 32 32"><circle cx="16" cy="16" r="13" fill="#d4f5ec" stroke="#2d3436" stroke-width="2"/><path d="M10 14q2.5-3 5 0M17 14q2.5-3 5 0" fill="none" stroke="#2d3436" stroke-width="2" stroke-linecap="round"/><path d="M11 19q5 5 10 0" fill="none" stroke="#2d3436" stroke-width="2" stroke-linecap="round"/></symbol>
<symbol id="i-mood-neutral" viewBox="0 0 32 32"><circle cx="16" cy="16" r="13" fill="#eee9ff" stroke="#2d3436" stroke-width="2"/><circle cx="12.5" cy="14" r="1.8" fill="#2d3436"/><circle cx="19.5" cy="14" r="1.8" fill="#2d3436"/><path d="M11 20h10" stroke="#2d3436" stroke-width="2" stroke-linecap="round"/></symbol>
<symbol id="i-mood-worried" viewBox="0 0 32 32"><circle cx="16" cy="16" r="13" fill="#fff5db" stroke="#2d3436" stroke-width="2"/><circle cx="12.5" cy="14" r="1.8" fill="#2d3436"/><circle cx="19.5" cy="14" r="1.8" fill="#2d3436"/><path d="M11 21q5-4 10 0" fill="none" stroke="#2d3436" stroke-width="2" stroke-linecap="round"/></symbol>
<symbol id="i-mood-stressed" viewBox="0 0 32 32"><circle cx="16" cy="16" r="13" fill="#fbe9e5" stroke="#2d3436" stroke-width="2"/><circle cx="12.5" cy="14" r="1.8" fill="#2d3436"/><circle cx="19.5" cy="14" r="1.8" fill="#2d3436"/><path d="M11 22q5-5 10 0" fill="none" stroke="#2d3436" stroke-width="2" stroke-linecap="round"/><circle cx="24" cy="10" r="3" fill="#74b9ff" stroke="#2d3436" stroke-width="1"/></symbol>
<symbol id="i-mood-celebrating" viewBox="0 0 32 32"><circle cx="16" cy="16" r="13" fill="#d4f5ec" stroke="#2d3436" stroke-width="2"/><path d="M10 14q2.5-3 5 0M17 14q2.5-3 5 0" fill="none" stroke="#2d3436" stroke-width="2" stroke-linecap="round"/><path d="M11 19q5 5 10 0" fill="#e17055" stroke="#2d3436" stroke-width="1.5" stroke-linecap="round"/><path d="M8 6l8-4 4 8z" fill="#fdcb6e" stroke="#2d3436" stroke-width="1"/></symbol>
<symbol id="i-rent" viewBox="0 0 32 32"><path d="M5 15l11-9 11 9" fill="none" stroke="#2d3436" stroke-width="2" stroke-linejoin="round"/><path d="M8 14v12h16V14" fill="#eee9ff" stroke="#2d3436" stroke-width="1.5"/><rect x="13" y="19" width="6" height="7" fill="#6c5ce7"/></symbol>
<symbol id="i-groceries" viewBox="0 0 32 32"><path d="M8 10h16l-1.5 14H9.5L8 10z" fill="#00b894" stroke="#2d3436" stroke-width="1.5" stroke-linejoin="round"/><path d="M12 10V8a4 4 0 0 1 8 0v2" fill="none" stroke="#2d3436" stroke-width="1.8"/></symbol>
<symbol id="i-transport" viewBox="0 0 32 32"><rect x="5" y="12" width="22" height="10" rx="3" fill="#6c5ce7" stroke="#2d3436" stroke-width="1.5"/><circle cx="10" cy="23" r="2.5" fill="#2d3436"/><circle cx="22" cy="23" r="2.5" fill="#2d3436"/><path d="M8 12l2-5h8l2 5" fill="#eee9ff" stroke="#2d3436" stroke-width="1.2"/></symbol>
<symbol id="i-blacktax" viewBox="0 0 32 32"><circle cx="16" cy="10" r="5" fill="#eee9ff" stroke="#2d3436" stroke-width="1.5"/><path d="M6 28c1-7 5-10 10-10s9 3 10 10" fill="#fdcb6e" stroke="#2d3436" stroke-width="1.5"/><path d="M22 8h6v4h-4l4 5" fill="none" stroke="#00b894" stroke-width="1.8" stroke-linecap="round" stroke-linejoin="round"/></symbol>
<symbol id="i-airtime" viewBox="0 0 32 32"><rect x="10" y="4" width="12" height="24" rx="2" fill="#eee9ff" stroke="#2d3436" stroke-width="1.5"/><circle cx="16" cy="24" r="1.2" fill="#2d3436"/><path d="M13 10h6M13 14h6M13 18h4" stroke="#6c5ce7" stroke-width="1.5" stroke-linecap="round"/></symbol>
<symbol id="i-medical" viewBox="0 0 32 32"><rect x="6" y="6" width="20" height="20" rx="4" fill="#ffffff" stroke="#2d3436" stroke-width="1.5"/><path d="M16 10v12M10 16h12" stroke="#e17055" stroke-width="3" stroke-linecap="round"/></symbol>
<symbol id="i-funeral" viewBox="0 0 32 32"><path d="M16 6c0 0-6 4-6 10a6 6 0 0 0 12 0c0-6-6-10-6-10z" fill="#fdcb6e" stroke="#2d3436" stroke-width="1.5"/><rect x="14.5" y="16" width="3" height="10" fill="#2d3436"/><path d="M10 26h12" stroke="#2d3436" stroke-width="2" stroke-linecap="round"/></symbol>
<symbol id="i-debt" viewBox="0 0 32 32"><rect x="5" y="8" width="22" height="16" rx="2" fill="#e17055" stroke="#2d3436" stroke-width="1.5"/><path d="M9 16h14M20 12l4 4-4 4" fill="none" stroke="#ffffff" stroke-width="2" stroke-linecap="round" stroke-linejoin="round"/></symbol>
<symbol id="i-emergency" viewBox="0 0 32 32"><path d="M16 3l11 4v8c0 7-5 11-11 13C10 26 5 22 5 15V7l11-4z" fill="#00b894" stroke="#2d3436" stroke-width="1.5"/><circle cx="16" cy="15" r="4" fill="#ffffff" opacity=".9"/><path d="M14.5 13.5c0-.8.7-1.3 1.6-1.3s1.6.5 1.6 1.3-.6.9-1.6.9-1.6.3-1.6 1 .7 1.3 1.6 1.3 1.6-.5 1.6-1.3" fill="none" stroke="#00b894" stroke-width="1.1" stroke-linecap="round"/></symbol>
<symbol id="i-stokvel" viewBox="0 0 32 32"><circle cx="11" cy="14" r="5" fill="#fdcb6e" stroke="#2d3436" stroke-width="1.3"/><circle cx="21" cy="14" r="5" fill="#6c5ce7" stroke="#2d3436" stroke-width="1.3"/><circle cx="16" cy="21" r="5" fill="#00b894" stroke="#2d3436" stroke-width="1.3"/></symbol>
<symbol id="i-plan" viewBox="0 0 32 32"><rect x="6" y="5" width="20" height="22" rx="2" fill="#ffffff" stroke="#2d3436" stroke-width="1.5"/><path d="M10 11h12M10 16h12M10 21h8" stroke="#6c5ce7" stroke-width="1.8" stroke-linecap="round"/><circle cx="22" cy="21" r="4" fill="#00b894" stroke="#2d3436" stroke-width="1"/><path d="M20.5 21l1 1 2-2" fill="none" stroke="#ffffff" stroke-width="1.2"/></symbol>
<symbol id="i-goal" viewBox="0 0 32 32"><circle cx="16" cy="16" r="11" fill="none" stroke="#6c5ce7" stroke-width="2"/><circle cx="16" cy="16" r="7" fill="none" stroke="#6c5ce7" stroke-width="2"/><circle cx="16" cy="16" r="2.5" fill="#e17055"/></symbol>
<symbol id="i-homeins" viewBox="0 0 32 32"><path d="M5 15l11-9 11 9" fill="none" stroke="#2d3436" stroke-width="2"/><path d="M8 14v12h16V14" fill="#eee9ff" stroke="#2d3436" stroke-width="1.5"/><path d="M16 17l5 2v3c0 2.5-2 4-5 4.5-3-.5-5-2-5-4.5v-3l5-2z" fill="#00b894" stroke="#2d3436" stroke-width="1"/></symbol>
<symbol id="i-fun" viewBox="0 0 32 32"><circle cx="16" cy="16" r="11" fill="#fdcb6e" stroke="#2d3436" stroke-width="1.5"/><path d="M11 14h.1M21 14h.1" stroke="#2d3436" stroke-width="3" stroke-linecap="round"/><path d="M11 19q5 4 10 0" fill="none" stroke="#2d3436" stroke-width="2" stroke-linecap="round"/></symbol>
<symbol id="i-car" viewBox="0 0 32 32"><path d="M5 18l2-6h18l2 6" fill="#6c5ce7" stroke="#2d3436" stroke-width="1.5"/><rect x="4" y="18" width="24" height="6" rx="2" fill="#eee9ff" stroke="#2d3436" stroke-width="1.5"/><circle cx="10" cy="24" r="2.5" fill="#2d3436"/><circle cx="22" cy="24" r="2.5" fill="#2d3436"/></symbol>
<symbol id="i-wrench" viewBox="0 0 32 32"><path d="M20 6a5 5 0 0 0-6 6l-8 8 3 3 8-8a5 5 0 0 0 6-6l-4 4-3-3 4-4z" fill="#fdcb6e" stroke="#2d3436" stroke-width="1.5" stroke-linejoin="round"/></symbol>
<symbol id="i-tyre" viewBox="0 0 32 32"><circle cx="16" cy="16" r="11" fill="#2d3436"/><circle cx="16" cy="16" r="6" fill="#eee9ff" stroke="#fdcb6e" stroke-width="2"/><circle cx="16" cy="16" r="2" fill="#2d3436"/></symbol>
<symbol id="i-taxi" viewBox="0 0 32 32"><rect x="4" y="12" width="24" height="10" rx="3" fill="#fdcb6e" stroke="#2d3436" stroke-width="1.5"/><path d="M8 12l2-5h12l2 5" fill="#eee9ff" stroke="#2d3436" stroke-width="1.2"/><circle cx="10" cy="24" r="2.2" fill="#2d3436"/><circle cx="22" cy="24" r="2.2" fill="#2d3436"/><rect x="13" y="5" width="6" height="3" fill="#6c5ce7" stroke="#2d3436" stroke-width="1"/></symbol>
<symbol id="i-fridge" viewBox="0 0 32 32"><rect x="9" y="4" width="14" height="24" rx="2" fill="#eee9ff" stroke="#2d3436" stroke-width="1.5"/><path d="M9 14h14" stroke="#2d3436" stroke-width="1.5"/><path d="M12 8v3M12 18v4" stroke="#6c5ce7" stroke-width="2" stroke-linecap="round"/></symbol>
<symbol id="i-plumb" viewBox="0 0 32 32"><path d="M10 4v10a6 6 0 0 0 12 0V4" fill="none" stroke="#6c5ce7" stroke-width="2.5" stroke-linecap="round"/><path d="M8 4h16" stroke="#2d3436" stroke-width="2.5" stroke-linecap="round"/><path d="M16 20v6M13 26h6" stroke="#2d3436" stroke-width="2" stroke-linecap="round"/></symbol>
<symbol id="i-appliance" viewBox="0 0 32 32"><rect x="6" y="6" width="20" height="20" rx="2" fill="#eee9ff" stroke="#2d3436" stroke-width="1.5"/><circle cx="16" cy="17" r="6" fill="#ffffff" stroke="#2d3436" stroke-width="1.5"/><circle cx="16" cy="17" r="2" fill="#6c5ce7"/><circle cx="11" cy="10" r="1.2" fill="#e17055"/><circle cx="15" cy="10" r="1.2" fill="#fdcb6e"/></symbol>
<symbol id="i-petrol" viewBox="0 0 32 32"><path d="M8 6h10v20H8z" fill="#6c5ce7" stroke="#2d3436" stroke-width="1.5"/><path d="M18 10h3l3 4v8h-3" fill="none" stroke="#2d3436" stroke-width="1.8" stroke-linejoin="round"/><rect x="10" y="9" width="6" height="5" fill="#eee9ff" stroke="#2d3436" stroke-width="1"/></symbol>
<symbol id="i-hospital" viewBox="0 0 32 32"><rect x="5" y="8" width="22" height="18" rx="2" fill="#ffffff" stroke="#2d3436" stroke-width="1.5"/><path d="M12 12h8v10h-8z" fill="#eee9ff" stroke="#2d3436" stroke-width="1.2"/><path d="M16 14v6M13 17h6" stroke="#e17055" stroke-width="2.2" stroke-linecap="round"/></symbol>
<symbol id="i-dental" viewBox="0 0 32 32"><path d="M10 8c0-2 2-4 6-4s6 2 6 4c0 4-2 6-2 10 0 2-1 4-4 4s-4-2-4-4c0-4-2-6-2-10z" fill="#ffffff" stroke="#2d3436" stroke-width="1.5"/></symbol>
<symbol id="i-family" viewBox="0 0 32 32"><circle cx="11" cy="11" r="4" fill="#eee9ff" stroke="#2d3436" stroke-width="1.2"/><circle cx="21" cy="11" r="4" fill="#eee9ff" stroke="#2d3436" stroke-width="1.2"/><circle cx="16" cy="17" r="3" fill="#fdcb6e" stroke="#2d3436" stroke-width="1.2"/><path d="M5 28c1-5 4-7 6-7 2 0 3 1 5 1s3-1 5-1c2 0 5 2 6 7" fill="#6c5ce7" stroke="#2d3436" stroke-width="1.2"/></symbol>
<symbol id="i-candle" viewBox="0 0 32 32"><rect x="13" y="12" width="6" height="14" rx="1" fill="#fdcb6e" stroke="#2d3436" stroke-width="1.3"/><path d="M16 12c0 0-3-3-1-6 3 1 4 4 1 6z" fill="#e17055" stroke="#2d3436" stroke-width="1"/><path d="M8 26h16" stroke="#2d3436" stroke-width="2" stroke-linecap="round"/></symbol>
<symbol id="i-ring" viewBox="0 0 32 32"><circle cx="16" cy="18" r="8" fill="none" stroke="#fdcb6e" stroke-width="3"/><circle cx="16" cy="18" r="8" fill="none" stroke="#2d3436" stroke-width="1.2"/><path d="M13 10l3-5 3 5z" fill="#6c5ce7" stroke="#2d3436" stroke-width="1"/></symbol>
<symbol id="i-school" viewBox="0 0 32 32"><path d="M4 14l12-6 12 6-12 6L4 14z" fill="#6c5ce7" stroke="#2d3436" stroke-width="1.5"/><path d="M10 17v5c2 2 10 2 12 0v-5" fill="none" stroke="#2d3436" stroke-width="1.5"/><path d="M26 14v8" stroke="#fdcb6e" stroke-width="2" stroke-linecap="round"/></symbol>
<symbol id="i-phone" viewBox="0 0 32 32"><rect x="10" y="4" width="12" height="24" rx="2" fill="#eee9ff" stroke="#2d3436" stroke-width="1.5"/><path d="M12 8l8 10M12 18l6-4" stroke="#e17055" stroke-width="1.5"/><circle cx="16" cy="24" r="1" fill="#2d3436"/></symbol>
<symbol id="i-alert" viewBox="0 0 32 32"><path d="M16 5l12 20H4L16 5z" fill="#e17055" stroke="#2d3436" stroke-width="1.5"/><path d="M16 13v6" stroke="#ffffff" stroke-width="2.2" stroke-linecap="round"/><circle cx="16" cy="22" r="1.3" fill="#ffffff"/></symbol>
<symbol id="i-geyser" viewBox="0 0 32 32"><rect x="10" y="6" width="12" height="16" rx="2" fill="#eee9ff" stroke="#2d3436" stroke-width="1.5"/><path d="M14 22v4M18 22v4M12 26h8" stroke="#2d3436" stroke-width="1.5" stroke-linecap="round"/><circle cx="16" cy="12" r="2" fill="#6c5ce7"/></symbol>
<symbol id="i-home" viewBox="0 0 32 32"><path d="M5 15l11-9 11 9" fill="none" stroke="#2d3436" stroke-width="2"/><path d="M8 14v12h16V14" fill="#fdcb6e" stroke="#2d3436" stroke-width="1.5"/><rect x="13" y="19" width="6" height="7" fill="#6c5ce7"/></symbol>
<symbol id="i-hustle" viewBox="0 0 32 32"><circle cx="16" cy="16" r="12" fill="#00b894" stroke="#2d3436" stroke-width="1.5"/><path d="M12 16l3 3 6-7" fill="none" stroke="#ffffff" stroke-width="2.5" stroke-linecap="round" stroke-linejoin="round"/></symbol>
<symbol id="i-refund" viewBox="0 0 32 32"><path d="M16 6v4M8 10l-3 3 3 3M24 16a8 8 0 1 1-2-5.5" fill="none" stroke="#6c5ce7" stroke-width="2" stroke-linecap="round" stroke-linejoin="round"/><path d="M22 8v5h-5" fill="none" stroke="#6c5ce7" stroke-width="2" stroke-linecap="round"/></symbol>
<symbol id="i-overtime" viewBox="0 0 32 32"><rect x="6" y="8" width="20" height="16" rx="2" fill="#eee9ff" stroke="#2d3436" stroke-width="1.5"/><path d="M6 12h20" stroke="#2d3436" stroke-width="1.5"/><circle cx="16" cy="18" r="4" fill="#ffffff" stroke="#6c5ce7" stroke-width="1.5"/><path d="M16 16v2l2 1" stroke="#2d3436" stroke-width="1.3" stroke-linecap="round"/></symbol>
<symbol id="i-quiet" viewBox="0 0 32 32"><path d="M8 14c0-4 3-7 8-7s8 3 8 7v2c0 2 1 3 2 4H6c1-1 2-2 2-4v-2z" fill="#eee9ff" stroke="#2d3436" stroke-width="1.5"/><path d="M13 23a3 3 0 0 0 6 0" fill="none" stroke="#2d3436" stroke-width="1.5"/></symbol>
<symbol id="i-gift" viewBox="0 0 32 32"><rect x="6" y="14" width="20" height="12" rx="1" fill="#6c5ce7" stroke="#2d3436" stroke-width="1.5"/><rect x="5" y="10" width="22" height="5" rx="1" fill="#fdcb6e" stroke="#2d3436" stroke-width="1.5"/><path d="M16 10v16" stroke="#e17055" stroke-width="2"/></symbol>
<symbol id="i-sars" viewBox="0 0 32 32"><rect x="7" y="5" width="18" height="22" rx="1" fill="#ffffff" stroke="#2d3436" stroke-width="1.5"/><path d="M11 10h10M11 14h10M11 18h7" stroke="#2d3436" stroke-width="1.3" stroke-linecap="round"/><path d="M12 22h8l-1 3h-6l-1-3z" fill="#00b894" stroke="#2d3436" stroke-width="1"/></symbol>
<symbol id="i-treat" viewBox="0 0 32 32"><path d="M6 18c0-6 4-10 10-10s10 4 10 10" fill="#eee9ff" stroke="#2d3436" stroke-width="1.5"/><path d="M6 18h20v4c0 2-2 4-4 4H10c-2 0-4-2-4-4v-4z" fill="#fdcb6e" stroke="#2d3436" stroke-width="1.5"/></symbol>
<symbol id="i-snap" viewBox="0 0 32 32"><rect x="6" y="8" width="20" height="16" rx="2" fill="#e17055" stroke="#2d3436" stroke-width="1.5"/><path d="M10 14h12M10 18h8" stroke="#ffffff" stroke-width="1.8" stroke-linecap="round"/></symbol>
<symbol id="i-penalty" viewBox="0 0 32 32"><circle cx="16" cy="16" r="12" fill="#e17055" stroke="#2d3436" stroke-width="1.5"/><path d="M16 9v8" stroke="#ffffff" stroke-width="2.5" stroke-linecap="round"/><circle cx="16" cy="21" r="1.5" fill="#ffffff"/></symbol>
<symbol id="i-festive" viewBox="0 0 32 32"><path d="M16 8l-8 16h16L16 8z" fill="#00b894" stroke="#2d3436" stroke-width="1.5"/><path d="M10 18h12M12 22h8" stroke="#ffffff" stroke-width="1.2"/><circle cx="16" cy="5" r="2" fill="#fdcb6e" stroke="#2d3436" stroke-width="1"/></symbol>
<symbol id="i-schoolfees" viewBox="0 0 32 32"><path d="M4 14l12-6 12 6-12 6L4 14z" fill="#fdcb6e" stroke="#2d3436" stroke-width="1.5"/><path d="M10 17v5c3 2 9 2 12 0v-5" fill="none" stroke="#2d3436" stroke-width="1.5"/></symbol>
<symbol id="i-winter" viewBox="0 0 32 32"><path d="M16 4v24M6 10l20 12M26 10L6 22" stroke="#6c5ce7" stroke-width="2" stroke-linecap="round"/><circle cx="16" cy="16" r="3" fill="#fdcb6e" stroke="#2d3436" stroke-width="1"/></symbol>
<symbol id="i-licence" viewBox="0 0 32 32"><rect x="4" y="8" width="24" height="16" rx="2" fill="#eee9ff" stroke="#2d3436" stroke-width="1.5"/><circle cx="12" cy="16" r="4" fill="#6c5ce7" stroke="#2d3436" stroke-width="1"/><path d="M18 13h6M18 17h5M18 21h4" stroke="#2d3436" stroke-width="1.3" stroke-linecap="round"/></symbol>
<symbol id="i-calendar" viewBox="0 0 32 32"><rect x="5" y="7" width="22" height="20" rx="2" fill="#ffffff" stroke="#2d3436" stroke-width="1.5"/><path d="M5 13h22M11 4v6M21 4v6" stroke="#2d3436" stroke-width="1.5" stroke-linecap="round"/><rect x="9" y="17" width="4" height="4" fill="#6c5ce7"/><rect x="15" y="17" width="4" height="4" fill="#00b894"/></symbol>
<symbol id="i-goal-dec" viewBox="0 0 32 32"><path d="M16 9l-5 11h10L16 9z" fill="#00b894" stroke="#2d3436" stroke-width="1.5"/><rect x="10" y="24" width="12" height="3" fill="#fdcb6e" stroke="#2d3436" stroke-width="1"/><circle cx="16" cy="6" r="2" fill="#e17055"/></symbol>
<symbol id="i-goal-study" viewBox="0 0 32 32"><path d="M5 12l11-5 11 5-11 5L5 12z" fill="#6c5ce7" stroke="#2d3436" stroke-width="1.5"/><path d="M9 14v6c3 2 11 2 14 0v-6" fill="none" stroke="#2d3436" stroke-width="1.5"/><path d="M24 12v8" stroke="#fdcb6e" stroke-width="2"/></symbol>
<symbol id="i-goal-car" viewBox="0 0 32 32"><path d="M5 18l2-6h18l2 6" fill="#00b894" stroke="#2d3436" stroke-width="1.5"/><rect x="4" y="18" width="24" height="5" rx="2" fill="#eee9ff" stroke="#2d3436" stroke-width="1.5"/><circle cx="10" cy="24" r="2.2" fill="#2d3436"/><circle cx="22" cy="24" r="2.2" fill="#2d3436"/></symbol>
<symbol id="i-goal-home" viewBox="0 0 32 32"><path d="M5 15l11-9 11 9" fill="none" stroke="#2d3436" stroke-width="2"/><path d="M8 14v12h16V14" fill="#6c5ce7" stroke="#2d3436" stroke-width="1.5"/><rect x="13" y="19" width="6" height="7" fill="#fdcb6e"/></symbol>
<symbol id="i-badge-long12" viewBox="0 0 32 32"><circle cx="16" cy="16" r="13" fill="#fdcb6e" stroke="#2d3436" stroke-width="2"/><circle cx="16" cy="16" r="10" fill="#ffffff" stroke="#6c5ce7" stroke-width="1.2"/><path d="M16 10c0 0-4 3-4 7h8c0-4-4-7-4-7z" fill="#00b894" stroke="#2d3436" stroke-width="1"/></symbol>
<symbol id="i-badge-long24" viewBox="0 0 32 32"><circle cx="16" cy="16" r="13" fill="#fdcb6e" stroke="#2d3436" stroke-width="2"/><circle cx="16" cy="16" r="10" fill="#ffffff" stroke="#6c5ce7" stroke-width="1.2"/><path d="M10 20c2-8 4-10 6-10s4 2 6 10" fill="#00b894" stroke="#2d3436" stroke-width="1"/></symbol>
<symbol id="i-badge-long50" viewBox="0 0 32 32"><circle cx="16" cy="16" r="13" fill="#fdcb6e" stroke="#2d3436" stroke-width="2"/><circle cx="16" cy="16" r="10" fill="#ffffff" stroke="#6c5ce7" stroke-width="1.2"/><path d="M8 20l4-8h8l4 8H8z" fill="#eee9ff" stroke="#2d3436" stroke-width="1"/></symbol>
<symbol id="i-badge-long100" viewBox="0 0 32 32"><circle cx="16" cy="16" r="13" fill="#fdcb6e" stroke="#2d3436" stroke-width="2"/><circle cx="16" cy="16" r="10" fill="#ffffff" stroke="#6c5ce7" stroke-width="1.2"/><circle cx="16" cy="16" r="5" fill="#6c5ce7"/><circle cx="16" cy="16" r="2" fill="#ffffff"/></symbol>
<symbol id="i-badge-balanced" viewBox="0 0 32 32"><circle cx="16" cy="16" r="13" fill="#fdcb6e" stroke="#2d3436" stroke-width="2"/><circle cx="16" cy="16" r="10" fill="#ffffff" stroke="#6c5ce7" stroke-width="1.2"/><path d="M8 16h16M16 10v12M10 12l-2 4 2 4M22 12l2 4-2 4" fill="none" stroke="#6c5ce7" stroke-width="1.5" stroke-linecap="round"/></symbol>
<symbol id="i-badge-brutal12" viewBox="0 0 32 32"><circle cx="16" cy="16" r="13" fill="#fdcb6e" stroke="#2d3436" stroke-width="2"/><circle cx="16" cy="16" r="10" fill="#ffffff" stroke="#6c5ce7" stroke-width="1.2"/><path d="M12 20c1-6 2-8 4-8s3 2 4 8" fill="#e17055" stroke="#2d3436" stroke-width="1"/></symbol>
<symbol id="i-badge-comeback" viewBox="0 0 32 32"><circle cx="16" cy="16" r="13" fill="#fdcb6e" stroke="#2d3436" stroke-width="2"/><circle cx="16" cy="16" r="10" fill="#ffffff" stroke="#6c5ce7" stroke-width="1.2"/><path d="M10 18c0-4 3-7 6-7s5 2 6 5" fill="none" stroke="#6c5ce7" stroke-width="1.8" stroke-linecap="round"/><path d="M20 12v4h4" fill="none" stroke="#6c5ce7" stroke-width="1.8"/></symbol>
<symbol id="i-badge-janworry" viewBox="0 0 32 32"><circle cx="16" cy="16" r="13" fill="#fdcb6e" stroke="#2d3436" stroke-width="2"/><circle cx="16" cy="16" r="10" fill="#ffffff" stroke="#6c5ce7" stroke-width="1.2"/><path d="M12 20l4-10 2 4h4l-6 10-2-4h-2z" fill="#6c5ce7" stroke="#2d3436" stroke-width="1"/></symbol>
<symbol id="i-badge-build_dec" viewBox="0 0 32 32"><circle cx="16" cy="16" r="13" fill="#fdcb6e" stroke="#2d3436" stroke-width="2"/><circle cx="16" cy="16" r="10" fill="#ffffff" stroke="#6c5ce7" stroke-width="1.2"/><path d="M16 9l-5 11h10L16 9z" fill="#00b894" stroke="#2d3436" stroke-width="1"/></symbol>
<symbol id="i-badge-build_study" viewBox="0 0 32 32"><circle cx="16" cy="16" r="13" fill="#fdcb6e" stroke="#2d3436" stroke-width="2"/><circle cx="16" cy="16" r="10" fill="#ffffff" stroke="#6c5ce7" stroke-width="1.2"/><path d="M8 14l8-3 8 3-8 3-8-3z" fill="#6c5ce7" stroke="#2d3436" stroke-width="1"/></symbol>
<symbol id="i-badge-build_car" viewBox="0 0 32 32"><circle cx="16" cy="16" r="13" fill="#fdcb6e" stroke="#2d3436" stroke-width="2"/><circle cx="16" cy="16" r="10" fill="#ffffff" stroke="#6c5ce7" stroke-width="1.2"/><path d="M9 17l1-3h12l1 3H9z" fill="#00b894" stroke="#2d3436" stroke-width="1"/><circle cx="12" cy="20" r="1.5" fill="#2d3436"/><circle cx="20" cy="20" r="1.5" fill="#2d3436"/></symbol>
<symbol id="i-badge-build_home" viewBox="0 0 32 32"><circle cx="16" cy="16" r="13" fill="#fdcb6e" stroke="#2d3436" stroke-width="2"/><circle cx="16" cy="16" r="10" fill="#ffffff" stroke="#6c5ce7" stroke-width="1.2"/><path d="M10 18l6-5 6 5v6H10v-6z" fill="#6c5ce7" stroke="#2d3436" stroke-width="1"/></symbol>
<symbol id="i-action-fund" viewBox="0 0 32 32"><path d="M16 4l10 4v7c0 6-4 10-10 12C10 25 6 21 6 15V8l10-4z" fill="#00b894" stroke="#2d3436" stroke-width="1.5"/><path d="M12 16h8M16 12v8" stroke="#ffffff" stroke-width="2" stroke-linecap="round"/></symbol>
<symbol id="i-action-cut" viewBox="0 0 32 32"><circle cx="11" cy="10" r="3" fill="none" stroke="#2d3436" stroke-width="1.5"/><circle cx="11" cy="22" r="3" fill="none" stroke="#2d3436" stroke-width="1.5"/><path d="M13.5 12l10 8M13.5 20l10-8" stroke="#e17055" stroke-width="2" stroke-linecap="round"/></symbol>
<symbol id="i-action-goal" viewBox="0 0 32 32"><circle cx="16" cy="16" r="10" fill="none" stroke="#6c5ce7" stroke-width="2"/><circle cx="16" cy="16" r="3" fill="#e17055"/></symbol>
<symbol id="i-action-credit" viewBox="0 0 32 32"><rect x="4" y="9" width="24" height="15" rx="2" fill="#e17055" stroke="#2d3436" stroke-width="1.5"/><rect x="4" y="13" width="24" height="3" fill="#2d3436"/></symbol>
<symbol id="i-action-save" viewBox="0 0 32 32"><rect x="8" y="6" width="16" height="20" rx="1" fill="#00b894" stroke="#2d3436" stroke-width="1.5"/><path d="M12 6v4h8V6" fill="#eee9ff" stroke="#2d3436" stroke-width="1"/><path d="M12 16h8M12 20h5" stroke="#ffffff" stroke-width="1.5" stroke-linecap="round"/></symbol>
<symbol id="i-action-debt" viewBox="0 0 32 32"><path d="M8 16h16M18 10l6 6-6 6" fill="none" stroke="#6c5ce7" stroke-width="2.5" stroke-linecap="round" stroke-linejoin="round"/></symbol>
<symbol id="i-action-treat" viewBox="0 0 32 32"><circle cx="16" cy="16" r="11" fill="#fdcb6e" stroke="#2d3436" stroke-width="1.5"/><path d="M11 15h.1M21 15h.1" stroke="#2d3436" stroke-width="2.5" stroke-linecap="round"/><path d="M11 19q5 4 10 0" fill="none" stroke="#2d3436" stroke-width="1.8"/></symbol>
<symbol id="i-action-skip" viewBox="0 0 32 32"><circle cx="16" cy="16" r="11" fill="#eee9ff" stroke="#2d3436" stroke-width="1.5"/><path d="M11 11l10 10M21 11L11 21" stroke="#2d3436" stroke-width="2.2" stroke-linecap="round"/></symbol>
<symbol id="i-food" viewBox="0 0 32 32"><ellipse cx="16" cy="18" rx="10" ry="7" fill="#fdcb6e" stroke="#2d3436" stroke-width="1.5"/><path d="M10 14c1-4 3-6 6-6s5 2 6 6" fill="#00b894" stroke="#2d3436" stroke-width="1.2"/></symbol>
<symbol id="i-wear" viewBox="0 0 32 32"><path d="M8 20l4-10h8l4 10H8z" fill="#eee9ff" stroke="#2d3436" stroke-width="1.5"/><path d="M12 14h8M14 18h4" stroke="#e17055" stroke-width="1.5" stroke-linecap="round"/></symbol>
<symbol id="i-replace" viewBox="0 0 32 32"><path d="M8 12a8 8 0 1 1-1 4" fill="none" stroke="#6c5ce7" stroke-width="2" stroke-linecap="round"/><path d="M8 7v6h6" fill="none" stroke="#6c5ce7" stroke-width="2" stroke-linejoin="round"/><path d="M10 20h12v4H10z" fill="#00b894" stroke="#2d3436" stroke-width="1"/></symbol>
<symbol id="i-sell" viewBox="0 0 32 32"><path d="M6 14l10-6 10 6v10H6V14z" fill="#fdcb6e" stroke="#2d3436" stroke-width="1.5"/><path d="M12 24v-6h8v6" fill="#eee9ff" stroke="#2d3436" stroke-width="1"/></symbol>
<symbol id="i-keep" viewBox="0 0 32 32"><path d="M16 6l2 6h6l-5 4 2 6-5-4-5 4 2-6-5-4h6z" fill="#eee9ff" stroke="#2d3436" stroke-width="1.5"/></symbol>

</svg>